<?xml version="1.0" standalone="no"?>
<!DOCTYPE svg PUBLIC "-//W3C//DTD SVG 20010904//EN"
 "http://www.w3.org/TR/2001/REC-SVG-20010904/DTD/svg10.dtd">
<svg version="1.0" xmlns="http://www.w3.org/2000/svg"
 width="681.000000pt" height="865.000000pt" viewBox="0 0 681.000000 865.000000"
 preserveAspectRatio="xMidYMid meet">

<g transform="translate(0.000000,865.000000) scale(0.100000,-0.100000)"
fill="#000000" stroke="none">
<path d="M176 8464 c-11 -8 -27 -14 -36 -14 -11 0 -15 -10 -15 -40 0 -32 3
-39 16 -35 9 3 22 -1 29 -10 7 -8 18 -15 24 -15 6 0 -4 14 -22 31 -19 17 -31
33 -28 36 3 3 12 -2 21 -11 23 -22 30 -20 31 9 2 19 -1 23 -10 15 -7 -5 -16
-7 -20 -3 -4 4 3 15 16 24 12 10 21 20 18 22 -3 3 -14 -1 -24 -9z"/>
<path d="M220 8472 c0 -5 10 -17 23 -26 22 -17 22 -17 1 -13 -18 4 -21 0 -20
-19 1 -16 6 -22 14 -19 8 3 20 -2 28 -10 24 -23 29 -18 29 25 0 28 -3 39 -12
36 -7 -3 -15 -1 -18 4 -9 15 -45 32 -45 22z m60 -62 c0 -5 -2 -10 -4 -10 -3 0
-8 5 -11 10 -3 6 -1 10 4 10 6 0 11 -4 11 -10z"/>
<path d="M5844 8457 c-3 -8 -4 -36 -2 -63 l3 -49 63 -3 63 -3 -3 63 -3 63 -58
3 c-42 2 -59 -1 -63 -11z m116 -52 l0 -55 -55 0 -55 0 0 48 c0 27 3 52 7 55 3
4 28 7 55 7 l48 0 0 -55z"/>
<path d="M6420 8465 c0 -5 12 -22 27 -37 l27 -28 -30 -32 -29 -33 33 29 32 30
30 -29 c16 -16 32 -26 35 -24 3 3 -9 18 -25 34 l-30 29 32 35 33 36 -35 -32
-34 -33 -33 32 c-18 18 -33 28 -33 23z"/>
<path d="M381 8453 c-2 -21 23 -103 31 -103 4 0 13 19 19 43 l12 42 11 -37
c17 -55 23 -55 40 3 9 29 14 55 11 57 -2 3 -7 -1 -9 -9 -2 -8 -9 -27 -14 -44
l-9 -30 -12 44 c-14 49 -22 47 -37 -12 l-11 -42 -15 50 c-9 28 -16 44 -17 38z"/>
<path d="M830 8445 c-10 -12 -6 -20 21 -44 28 -26 30 -31 16 -37 -9 -3 -24 -3
-33 0 -8 3 -12 2 -9 -4 9 -15 41 -12 56 6 12 14 10 19 -14 38 -33 26 -34 43
-4 49 21 4 21 4 1 6 -12 0 -27 -6 -34 -14z"/>
<path d="M1266 8438 c-21 -29 -20 -51 2 -71 35 -32 82 -10 82 38 0 51 -56 73
-84 33z m62 0 c7 -7 12 -21 12 -33 0 -46 -53 -62 -71 -21 -21 45 26 87 59 54z"/>
<path d="M1371 8409 c-1 -54 0 -56 25 -55 51 2 59 71 8 71 -10 0 -22 9 -26 20
-3 12 -6 -4 -7 -36z m54 1 c10 -16 -5 -50 -21 -50 -17 0 -28 24 -20 45 6 17
32 20 41 5z"/>
<path d="M1168 8440 c-2 -5 -15 -11 -30 -12 -26 -2 -28 -6 -27 -43 1 -41 3
-40 13 8 4 18 13 27 26 27 16 0 20 -7 20 -35 0 -27 4 -35 18 -34 10 0 12 3 5
6 -15 5 -18 60 -4 65 5 2 3 8 -4 15 -8 7 -15 8 -17 3z"/>
<path d="M532 8388 c1 -41 1 -41 5 -8 3 19 10 38 16 42 8 5 6 8 -5 8 -15 0
-18 -8 -16 -42z"/>
<path d="M583 8390 c0 -25 2 -35 4 -22 2 12 2 32 0 45 -2 12 -4 2 -4 -23z"/>
<path d="M611 8386 c1 -42 3 -41 13 7 9 38 34 35 39 -5 4 -33 4 -33 3 2 -1 31
-4 35 -28 36 -26 1 -28 -1 -27 -40z"/>
<path d="M702 8418 c-27 -27 0 -77 34 -64 10 4 14 1 12 -6 -3 -7 -15 -15 -29
-19 -21 -6 -21 -7 -3 -8 30 -1 44 18 44 64 0 35 -3 41 -23 43 -13 1 -29 -4
-35 -10z m43 -28 c0 -15 -6 -26 -16 -28 -19 -3 -31 21 -22 43 9 25 38 13 38
-15z"/>
<path d="M911 8386 l2 -41 6 34 c8 48 31 53 31 7 0 -20 5 -36 10 -36 6 0 10
16 10 35 0 48 27 48 33 0 l4 -35 -1 37 -1 38 -47 1 -48 1 1 -41z"/>
<path d="M1040 8422 c0 -6 9 -8 20 -5 27 7 25 -10 -2 -22 -33 -14 -29 -40 5
-41 26 -1 28 1 25 35 -2 29 -8 37 -25 39 -13 2 -23 -1 -23 -6z m40 -41 c0 -14
-18 -23 -30 -16 -6 4 -8 11 -5 16 8 12 35 12 35 0z"/>
<path d="M1454 8418 c-4 -7 2 -18 14 -26 28 -18 29 -36 2 -29 -11 3 -20 1 -20
-5 0 -16 45 -4 48 13 1 8 -7 20 -20 26 l-23 11 25 10 c24 10 24 11 3 11 -12 1
-25 -4 -29 -11z"/>
<path d="M1524 8416 c-16 -41 20 -86 47 -59 6 6 1 9 -12 9 -12 -1 -24 5 -26
12 -3 7 5 12 22 12 20 0 26 4 23 18 -4 22 -46 29 -54 8z m46 -6 c0 -5 -9 -10
-21 -10 -11 0 -17 5 -14 10 3 6 13 10 21 10 8 0 14 -4 14 -10z"/>
<path d="M1601 8385 l2 -40 6 35 c8 46 37 53 46 11 4 -17 11 -33 15 -36 10 -6
44 65 36 73 -3 2 -11 -11 -19 -29 l-14 -34 -7 33 c-7 28 -11 32 -37 30 -27 -2
-29 -5 -28 -43z"/>
<path d="M1732 8418 c-15 -15 -15 -41 0 -56 14 -14 48 -16 48 -4 0 5 -10 8
-21 8 -12 -1 -24 5 -26 12 -3 7 5 12 22 12 20 0 26 4 23 17 -4 22 -29 28 -46
11z m38 -8 c0 -5 -9 -10 -21 -10 -11 0 -17 5 -14 10 3 6 13 10 21 10 8 0 14
-4 14 -10z"/>
<path d="M1801 8385 l1 -40 8 34 c4 18 14 37 21 42 10 6 7 8 -9 6 -19 -1 -22
-7 -21 -42z"/>
<path d="M5307 8403 c18 -2 50 -2 70 0 21 2 7 4 -32 4 -38 0 -55 -2 -38 -4z"/>
<path d="M230 8365 c-14 -16 -10 -18 14 -9 9 3 16 10 16 15 0 14 -16 11 -30
-6z"/>
<path d="M60 4154 l0 -4066 29 -29 29 -29 3297 0 3297 0 29 29 29 29 0 846 c0
465 3 846 8 846 4 0 5 24 2 52 -2 29 -5 1478 -7 3221 l-3 3167 -3355 0 -3355
0 0 -4066z m1897 1631 c6 -38 12 -76 12 -82 1 -21 -36 -15 -42 7 -7 27 -50 26
-69 -1 -8 -13 -21 -20 -35 -17 -21 3 -20 7 25 86 41 72 50 82 72 80 22 -3 26
-10 37 -73z m510 68 c-2 -5 -12 -43 -21 -85 -16 -70 -20 -78 -40 -78 l-23 0
20 85 c19 77 23 85 45 85 13 0 21 -3 19 -7z m423 -13 c0 -11 6 -20 13 -20 7
-1 6 -6 -5 -14 -20 -15 -37 -96 -19 -96 6 0 11 -4 11 -10 0 -13 -57 -13 -65
-1 -3 6 -1 29 4 53 7 30 7 45 -1 49 -7 5 -1 17 17 33 34 31 45 33 45 6z m870
13 c-1 -5 -9 -42 -18 -83 -15 -63 -21 -75 -40 -78 -12 -2 -22 2 -22 8 0 12 26
121 35 148 5 13 45 17 45 5z m770 -13 c0 -11 6 -20 13 -20 7 -1 6 -6 -5 -14
-24 -18 -35 -91 -15 -99 11 -4 17 8 26 54 11 52 15 59 35 59 l23 0 -15 -65
-16 -65 -52 0 c-29 0 -55 4 -59 9 -3 6 -1 29 4 53 7 30 7 45 -1 49 -7 5 -1 17
17 33 34 31 45 33 45 6z m84 5 c-4 -8 -15 -15 -25 -15 -10 0 -19 7 -19 15 0 9
9 15 25 15 18 0 23 -4 19 -15z m426 8 c0 -31 -35 -123 -47 -123 -12 0 -13 11
-7 58 3 31 8 60 11 65 5 9 43 9 43 0z m-2930 -52 c16 -31 13 -34 -29 -27 -34
5 -41 3 -46 -15 -8 -23 8 -48 19 -30 8 12 56 15 56 4 0 -3 -7 -15 -17 -25 -20
-22 -76 -24 -93 -3 -17 20 -6 86 17 102 27 20 81 16 93 -6z m128 7 c7 -7 12
-18 12 -25 0 -16 -36 -18 -45 -3 -10 16 -35 -8 -35 -32 0 -16 5 -18 35 -12 27
5 35 3 35 -8 0 -24 -23 -38 -62 -38 -32 0 -40 4 -49 26 -19 51 15 104 66 104
17 0 36 -5 43 -12z m142 -14 c14 -35 6 -44 -41 -44 -21 0 -39 -4 -39 -10 0
-11 11 -13 53 -10 15 1 27 -2 27 -7 0 -36 -92 -47 -110 -14 -14 28 -12 63 6
89 11 16 25 22 55 22 33 0 41 -4 49 -26z m200 0 c14 -35 6 -44 -41 -44 -21 0
-39 -4 -39 -10 0 -11 11 -13 53 -10 15 1 27 -2 27 -7 0 -36 -92 -47 -110 -14
-14 28 -12 63 6 89 11 16 25 22 55 22 33 0 41 -4 49 -26z m220 11 c9 -11 10
-25 2 -57 -6 -23 -8 -46 -6 -50 3 -5 -20 -8 -53 -6 -57 3 -58 3 -58 33 0 30 4
33 73 51 7 2 10 9 7 14 -5 8 -11 8 -20 0 -8 -7 -27 -11 -42 -10 -49 4 -52 1
-64 -45 -9 -37 -16 -45 -34 -45 l-22 0 15 64 15 63 88 1 c65 1 90 -2 99 -13z
m220 -11 c14 -35 6 -44 -41 -44 -21 0 -39 -4 -39 -10 0 -11 11 -13 53 -10 15
1 27 -2 27 -7 0 -36 -92 -47 -110 -14 -14 28 -12 63 6 89 11 16 25 22 55 22
33 0 41 -4 49 -26z m130 -4 c0 -16 4 -30 9 -30 5 0 14 14 21 30 9 22 19 30 36
30 l24 0 -31 -62 c-46 -93 -67 -118 -95 -118 -17 0 -24 5 -24 20 0 11 6 19 13
18 9 -2 11 16 9 70 -2 66 0 72 18 72 16 0 20 -7 20 -30z m204 8 c21 -30 20
-50 -5 -82 -16 -20 -29 -26 -59 -26 -42 0 -60 18 -60 62 0 42 27 68 70 68 29
0 43 -6 54 -22z m80 -24 c-12 -42 -12 -45 3 -42 10 2 22 20 29 43 8 30 17 41
34 43 25 4 25 7 -1 -90 -10 -38 -10 -38 -60 -38 -60 0 -66 10 -49 80 10 42 16
50 35 50 23 0 23 -1 9 -46z m194 30 c-2 -8 -7 -15 -13 -15 -19 -1 -35 -22 -45
-60 -8 -29 -16 -39 -30 -39 -11 0 -20 6 -20 13 0 11 15 75 25 105 3 7 21 12
45 12 32 0 41 -3 38 -16z m258 1 c4 -8 1 -37 -6 -65 -10 -42 -16 -50 -35 -50
-22 0 -23 2 -14 32 5 18 9 41 9 52 0 18 -1 18 -19 2 -10 -10 -22 -33 -25 -52
-6 -27 -12 -34 -30 -34 l-23 0 15 64 15 64 54 1 c38 0 56 -4 59 -14z m148 -1
c3 -8 0 -37 -6 -64 -10 -42 -15 -50 -34 -50 -21 0 -22 3 -13 32 14 49 12 68
-6 61 -9 -3 -21 -25 -27 -49 -10 -35 -17 -44 -34 -44 -22 0 -22 1 -8 58 7 31
13 60 14 63 0 4 24 7 54 8 39 0 56 -4 60 -15z m136 -3 c14 -28 12 -63 -6 -89
-22 -32 -88 -31 -110 3 -13 20 -14 30 -4 59 13 39 20 44 72 45 27 1 40 -4 48
-18z m70 -11 c0 -16 4 -30 9 -30 5 0 14 14 21 30 9 21 19 30 36 30 13 0 24 -2
24 -4 0 -3 -16 -32 -36 -66 -29 -47 -42 -60 -58 -58 -15 2 -22 13 -28 43 -4
22 -10 50 -13 63 -5 18 -1 22 20 22 21 0 25 -5 25 -30z m200 15 c9 -11 10 -25
2 -57 -6 -23 -8 -46 -6 -50 3 -5 -20 -8 -53 -6 -57 3 -58 3 -58 33 0 30 4 33
73 51 7 2 10 9 7 15 -5 8 -10 8 -18 0 -6 -6 -22 -11 -34 -11 -21 0 -22 3 -13
20 13 25 81 28 100 5z m288 3 c17 -17 15 -69 -4 -96 -17 -25 -81 -31 -102 -10
-17 17 -15 78 5 100 19 21 82 25 101 6z m158 -3 c4 -8 1 -37 -6 -65 -10 -42
-16 -50 -35 -50 -22 0 -23 2 -14 32 5 18 9 41 9 52 0 18 -1 18 -19 2 -10 -10
-22 -33 -25 -52 -6 -27 -12 -34 -30 -34 l-23 0 15 64 15 64 54 1 c38 0 56 -4
59 -14z m124 -100 c0 -9 -9 -15 -25 -15 -18 0 -23 4 -19 15 4 8 15 15 25 15
10 0 19 -7 19 -15z m731 -504 l29 -29 0 -2156 c0 -1649 -3 -2161 -12 -2181
-27 -59 133 -55 -2338 -55 -2471 0 -2311 -4 -2338 55 -9 20 -12 532 -12 2181
l0 2156 29 29 29 29 2292 0 2292 0 29 -29z"/>
<path d="M1896 5783 c-11 -11 -6 -23 9 -23 8 0 15 4 15 9 0 13 -16 22 -24 14z"/>
<path d="M2315 5780 c-4 -6 3 -10 14 -10 25 0 27 6 6 13 -8 4 -17 2 -20 -3z"/>
<path d="M2515 5780 c-4 -6 3 -10 14 -10 25 0 27 6 6 13 -8 4 -17 2 -20 -3z"/>
<path d="M2725 5730 c-3 -5 1 -10 9 -10 9 0 16 5 16 10 0 6 -4 10 -9 10 -6 0
-13 -4 -16 -10z"/>
<path d="M2955 5780 c-4 -6 3 -10 14 -10 25 0 27 6 6 13 -8 4 -17 2 -20 -3z"/>
<path d="M3286 5774 c-19 -19 -20 -26 -4 -42 15 -15 38 3 38 29 0 26 -16 32
-34 13z"/>
<path d="M4101 5777 c-13 -13 -15 -44 -2 -52 12 -7 41 22 41 40 0 18 -25 26
-39 12z"/>
<path d="M4365 5730 c-3 -5 1 -10 9 -10 9 0 16 5 16 10 0 6 -4 10 -9 10 -6 0
-13 -4 -16 -10z"/>
<path d="M4657 5773 c-10 -9 -8 -41 2 -48 12 -7 41 22 41 41 0 14 -31 20 -43
7z"/>
<path d="M2343 4769 c4 -14 11 -48 17 -77 15 -67 34 -67 50 -2 7 28 16 50 20
50 4 0 13 -22 20 -50 7 -28 18 -50 25 -50 13 0 50 138 40 149 -10 9 -22 -19
-29 -63 -8 -47 -21 -36 -31 27 -10 54 -35 46 -54 -18 l-15 -50 -11 49 c-6 27
-17 52 -24 54 -10 3 -12 -2 -8 -19z"/>
<path d="M2620 4780 c0 -5 7 -10 15 -10 8 0 15 5 15 10 0 6 -7 10 -15 10 -8 0
-15 -4 -15 -10z"/>
<path d="M3000 4776 c-20 -26 -8 -58 27 -70 18 -6 34 -15 35 -21 4 -15 -41
-18 -58 -4 -18 15 -27 8 -18 -15 15 -38 104 -27 104 13 0 22 -35 51 -62 51
-10 0 -18 7 -18 15 0 9 9 15 25 15 14 0 25 -4 25 -10 0 -5 5 -10 10 -10 18 0
11 29 -9 40 -27 14 -46 13 -61 -4z"/>
<path d="M3640 4770 c-40 -40 -14 -130 39 -130 10 0 30 9 45 21 36 28 36 80 0
108 -33 26 -58 27 -84 1z m81 -31 c16 -30 -3 -69 -34 -69 -29 0 -47 17 -47 45
0 45 60 63 81 24z"/>
<path d="M3780 4717 l0 -74 33 0 c43 0 57 13 57 52 0 38 -21 59 -50 50 -17 -5
-20 -2 -20 19 0 14 -4 26 -10 26 -6 0 -10 -31 -10 -73z m65 -22 c0 -33 -28
-47 -39 -19 -10 25 3 56 22 52 11 -2 17 -13 17 -33z"/>
<path d="M3503 4765 c-16 -31 -2 -119 20 -123 9 -2 17 1 17 7 0 6 -4 11 -10
11 -15 0 -12 67 3 73 8 4 9 8 1 14 -6 4 -13 15 -16 23 -4 12 -7 11 -15 -5z"/>
<path d="M2540 4693 c0 -29 5 -53 10 -53 6 0 10 13 10 29 0 39 9 61 26 61 8 0
14 4 14 8 0 5 -13 9 -30 9 -30 0 -30 -1 -30 -54z"/>
<path d="M2620 4695 c0 -42 3 -55 15 -55 12 0 15 13 15 55 0 42 -3 55 -15 55
-12 0 -15 -13 -15 -55z"/>
<path d="M2680 4693 c0 -29 5 -53 10 -53 6 0 10 15 10 33 0 41 13 62 34 54 11
-4 16 -19 16 -47 0 -22 5 -40 10 -40 15 0 12 86 -2 97 -7 6 -28 10 -45 10
l-33 0 0 -54z"/>
<path d="M2814 4732 c-32 -31 -3 -99 37 -87 14 5 19 1 19 -11 0 -13 -6 -15
-30 -10 -33 6 -42 -9 -10 -19 50 -16 70 11 70 97 l0 46 -36 -1 c-20 -1 -43 -7
-50 -15z m51 -37 c0 -33 -28 -47 -39 -19 -10 25 3 56 22 52 11 -2 17 -13 17
-33z"/>
<path d="M3120 4693 c0 -63 18 -71 22 -11 2 31 8 44 21 46 14 3 17 -4 17 -42
0 -25 5 -46 10 -46 6 0 10 13 10 29 0 39 9 61 25 61 16 0 25 -22 25 -61 0 -16
5 -29 10 -29 6 0 10 20 10 44 0 52 -21 76 -50 58 -11 -6 -22 -8 -25 -3 -3 5
-21 9 -40 8 l-35 -1 0 -53z"/>
<path d="M3310 4736 c-11 -14 -8 -15 20 -9 25 5 32 3 28 -8 -2 -7 -15 -16 -29
-19 -17 -4 -24 -13 -24 -30 0 -22 4 -25 40 -26 l40 0 -5 50 c-4 46 -8 51 -31
54 -14 2 -31 -4 -39 -12z m50 -56 c0 -12 -28 -25 -36 -17 -9 9 6 27 22 27 8 0
14 -5 14 -10z"/>
<path d="M3420 4693 c0 -29 5 -53 10 -53 6 0 10 17 10 39 0 29 6 42 23 54 22
15 22 15 -10 15 l-33 -1 0 -54z"/>
<path d="M3910 4735 c-18 -22 -6 -42 29 -50 40 -9 29 -29 -11 -21 -26 5 -29 4
-18 -9 26 -31 90 -7 77 30 -4 8 -18 17 -32 21 -14 3 -25 11 -25 16 0 6 11 7
25 4 27 -7 35 8 9 18 -25 10 -41 7 -54 -9z"/>
<path d="M4023 4724 c-15 -24 -15 -29 -2 -53 17 -30 50 -39 69 -16 11 13 9 14
-19 9 -24 -5 -31 -3 -31 10 0 11 9 16 30 16 23 0 30 4 30 20 0 18 -26 40 -49
40 -6 0 -18 -12 -28 -26z m52 -4 c3 -5 -3 -10 -14 -10 -12 0 -21 5 -21 10 0 6
6 10 14 10 8 0 18 -4 21 -10z"/>
<path d="M4140 4694 c0 -30 5 -54 10 -54 6 0 10 20 10 45 0 33 4 45 15 45 8 0
15 4 15 9 0 5 -11 9 -25 9 -24 0 -25 -4 -25 -54z"/>
<path d="M4223 4695 c11 -30 24 -55 29 -55 9 0 28 39 42 88 12 37 -11 25 -24
-13 -13 -40 -25 -38 -35 5 -4 17 -12 30 -20 30 -10 0 -8 -13 8 -55z"/>
<path d="M4336 4734 c-9 -8 -16 -26 -16 -39 0 -23 23 -55 40 -55 16 0 40 12
40 20 0 5 -12 8 -26 7 -15 -1 -29 4 -31 11 -3 8 7 12 31 12 25 0 36 5 36 14 0
18 -27 46 -45 46 -7 0 -21 -7 -29 -16z m49 -14 c4 -6 -5 -10 -20 -10 -15 0
-24 4 -20 10 3 6 12 10 20 10 8 0 17 -4 20 -10z"/>
<path d="M4440 4693 c0 -29 5 -53 10 -53 6 0 10 13 10 29 0 39 9 61 26 61 8 0
14 4 14 8 0 5 -13 9 -30 9 -30 0 -30 -1 -30 -54z"/>
<path d="M2682 4270 c0 -19 2 -27 5 -17 2 9 2 25 0 35 -3 9 -5 1 -5 -18z"/>
<path d="M1868 4263 c7 -3 16 -2 19 1 4 3 -2 6 -13 5 -11 0 -14 -3 -6 -6z"/>
<path d="M2058 4263 c7 -3 16 -2 19 1 4 3 -2 6 -13 5 -11 0 -14 -3 -6 -6z"/>
<path d="M3018 4263 c7 -3 16 -2 19 1 4 3 -2 6 -13 5 -11 0 -14 -3 -6 -6z"/>
<path d="M3063 4220 c0 -30 2 -43 4 -27 2 15 2 39 0 55 -2 15 -4 2 -4 -28z"/>
<path d="M3438 4263 c6 -2 18 -2 25 0 6 3 1 5 -13 5 -14 0 -19 -2 -12 -5z"/>
<path d="M3538 4263 c7 -3 16 -2 19 1 4 3 -2 6 -13 5 -11 0 -14 -3 -6 -6z"/>
<path d="M3828 4263 c6 -2 18 -2 25 0 6 3 1 5 -13 5 -14 0 -19 -2 -12 -5z"/>
<path d="M4068 4263 c7 -3 16 -2 19 1 4 3 -2 6 -13 5 -11 0 -14 -3 -6 -6z"/>
<path d="M4298 4263 c7 -3 16 -2 19 1 4 3 -2 6 -13 5 -11 0 -14 -3 -6 -6z"/>
<path d="M4688 4263 c7 -3 16 -2 19 1 4 3 -2 6 -13 5 -11 0 -14 -3 -6 -6z"/>
<path d="M4968 4263 c7 -3 16 -2 19 1 4 3 -2 6 -13 5 -11 0 -14 -3 -6 -6z"/>
<path d="M2593 4210 c0 -25 2 -35 4 -22 2 12 2 32 0 45 -2 12 -4 2 -4 -23z"/>
<path d="M4823 4210 c0 -25 2 -35 4 -22 2 12 2 32 0 45 -2 12 -4 2 -4 -23z"/>
<path d="M3680 4228 c0 -4 16 -8 35 -8 19 0 35 2 35 4 0 2 -16 6 -35 8 -19 2
-35 0 -35 -4z"/>
<path d="M4883 4205 c0 -22 2 -30 4 -17 2 12 2 30 0 40 -3 9 -5 -1 -4 -23z"/>
<path d="M5110 4228 c0 -4 16 -8 35 -8 19 0 35 2 35 4 0 2 -16 6 -35 8 -19 2
-35 0 -35 -4z"/>
<path d="M2200 4222 c0 -4 18 -6 40 -4 22 2 40 6 40 8 0 2 -18 4 -40 4 -22 0
-40 -3 -40 -8z"/>
<path d="M4128 4223 c12 -2 30 -2 40 0 9 3 -1 5 -23 4 -22 0 -30 -2 -17 -4z"/>
<path d="M4592 4205 c0 -16 2 -22 5 -12 2 9 2 23 0 30 -3 6 -5 -1 -5 -18z"/>
<path d="M2308 4043 c7 -3 16 -2 19 1 4 3 -2 6 -13 5 -11 0 -14 -3 -6 -6z"/>
<path d="M2638 4043 c7 -3 16 -2 19 1 4 3 -2 6 -13 5 -11 0 -14 -3 -6 -6z"/>
<path d="M3188 4043 c7 -3 16 -2 19 1 4 3 -2 6 -13 5 -11 0 -14 -3 -6 -6z"/>
<path d="M4168 4043 c7 -3 16 -2 19 1 4 3 -2 6 -13 5 -11 0 -14 -3 -6 -6z"/>
<path d="M4398 4043 c7 -3 16 -2 19 1 4 3 -2 6 -13 5 -11 0 -14 -3 -6 -6z"/>
<path d="M1683 3990 c0 -25 2 -35 4 -22 2 12 2 32 0 45 -2 12 -4 2 -4 -23z"/>
<path d="M3093 3990 c0 -25 2 -35 4 -22 2 12 2 32 0 45 -2 12 -4 2 -4 -23z"/>
<path d="M1743 3985 c0 -22 2 -30 4 -17 2 12 2 30 0 40 -3 9 -5 -1 -4 -23z"/>
<path d="M2680 4008 c0 -4 16 -8 35 -8 19 0 35 2 35 4 0 2 -16 6 -35 8 -19 2
-35 0 -35 -4z"/>
<path d="M3153 3985 c0 -22 2 -30 4 -17 2 12 2 30 0 40 -3 9 -5 -1 -4 -23z"/>
<path d="M2990 4002 c0 -4 18 -6 40 -4 22 2 40 6 40 8 0 2 -18 4 -40 4 -22 0
-40 -3 -40 -8z"/>
<path d="M3938 4003 c12 -2 30 -2 40 0 9 3 -1 5 -23 4 -22 0 -30 -2 -17 -4z"/>
<path d="M4228 4003 c12 -2 30 -2 40 0 9 3 -1 5 -23 4 -22 0 -30 -2 -17 -4z"/>
<path d="M4642 3970 c0 -14 2 -19 5 -12 2 6 2 18 0 25 -3 6 -5 1 -5 -13z"/>
<path d="M5192 3970 c0 -14 2 -19 5 -12 2 6 2 18 0 25 -3 6 -5 1 -5 -13z"/>
<path d="M2108 3823 c6 -2 18 -2 25 0 6 3 1 5 -13 5 -14 0 -19 -2 -12 -5z"/>
<path d="M3083 3780 c0 -30 2 -43 4 -27 2 15 2 39 0 55 -2 15 -4 2 -4 -28z"/>
<path d="M3208 3823 c7 -3 16 -2 19 1 4 3 -2 6 -13 5 -11 0 -14 -3 -6 -6z"/>
<path d="M3538 3823 c7 -3 16 -2 19 1 4 3 -2 6 -13 5 -11 0 -14 -3 -6 -6z"/>
<path d="M4523 3770 c0 -25 2 -35 4 -22 2 12 2 32 0 45 -2 12 -4 2 -4 -23z"/>
<path d="M4583 3765 c0 -22 2 -30 4 -17 2 12 2 30 0 40 -3 9 -5 -1 -4 -23z"/>
<path d="M5140 3788 c0 -4 16 -8 35 -8 19 0 35 2 35 4 0 2 -16 6 -35 8 -19 2
-35 0 -35 -4z"/>
<path d="M1638 3783 c12 -2 30 -2 40 0 9 3 -1 5 -23 4 -22 0 -30 -2 -17 -4z"/>
<path d="M2890 3782 c0 -4 18 -6 40 -4 22 2 40 6 40 8 0 2 -18 4 -40 4 -22 0
-40 -3 -40 -8z"/>
<path d="M3020 3781 c0 -6 4 -13 10 -16 6 -3 7 1 4 9 -7 18 -14 21 -14 7z"/>
<path d="M3580 3782 c0 -4 18 -6 40 -4 22 2 40 6 40 8 0 2 -18 4 -40 4 -22 0
-40 -3 -40 -8z"/>
<path d="M3452 3750 c0 -14 2 -19 5 -12 2 6 2 18 0 25 -3 6 -5 1 -5 -13z"/>
<path d="M4202 3750 c0 -14 2 -19 5 -12 2 6 2 18 0 25 -3 6 -5 1 -5 -13z"/>
<path d="M2363 3425 c0 -38 2 -53 4 -32 2 20 2 52 0 70 -2 17 -4 1 -4 -38z"/>
<path d="M2318 3453 c7 -3 16 -2 19 1 4 3 -2 6 -13 5 -11 0 -14 -3 -6 -6z"/>
<path d="M2678 3453 c6 -2 18 -2 25 0 6 3 1 5 -13 5 -14 0 -19 -2 -12 -5z"/>
<path d="M3358 3453 c7 -3 16 -2 19 1 4 3 -2 6 -13 5 -11 0 -14 -3 -6 -6z"/>
<path d="M3838 3453 c7 -3 16 -2 19 1 4 3 -2 6 -13 5 -11 0 -14 -3 -6 -6z"/>
<path d="M4078 3453 c7 -3 16 -2 19 1 4 3 -2 6 -13 5 -11 0 -14 -3 -6 -6z"/>
<path d="M4458 3453 c7 -3 16 -2 19 1 4 3 -2 6 -13 5 -11 0 -14 -3 -6 -6z"/>
<path d="M4893 3410 c0 -30 2 -43 4 -27 2 15 2 39 0 55 -2 15 -4 2 -4 -28z"/>
<path d="M1643 3400 c0 -25 2 -35 4 -22 2 12 2 32 0 45 -2 12 -4 2 -4 -23z"/>
<path d="M3113 3400 c0 -25 2 -35 4 -22 2 12 2 32 0 45 -2 12 -4 2 -4 -23z"/>
<path d="M1703 3395 c0 -22 2 -30 4 -17 2 12 2 30 0 40 -3 9 -5 -1 -4 -23z"/>
<path d="M1880 3418 c0 -4 16 -8 35 -8 19 0 35 2 35 4 0 2 -16 6 -35 8 -19 2
-35 0 -35 -4z"/>
<path d="M2423 3395 c0 -22 2 -30 4 -17 2 12 2 30 0 40 -3 9 -5 -1 -4 -23z"/>
<path d="M3173 3395 c0 -22 2 -30 4 -17 2 12 2 30 0 40 -3 9 -5 -1 -4 -23z"/>
<path d="M2042 3395 c0 -16 2 -22 5 -12 2 9 2 23 0 30 -3 6 -5 -1 -5 -18z"/>
<path d="M2160 3412 c0 -4 18 -6 40 -4 22 2 40 6 40 8 0 2 -18 4 -40 4 -22 0
-40 -3 -40 -8z"/>
<path d="M2478 3413 c12 -2 30 -2 40 0 9 3 -1 5 -23 4 -22 0 -30 -2 -17 -4z"/>
<path d="M2748 3413 c12 -2 30 -2 40 0 9 3 -1 5 -23 4 -22 0 -30 -2 -17 -4z"/>
<path d="M3908 3413 c12 -2 30 -2 40 0 9 3 -1 5 -23 4 -22 0 -30 -2 -17 -4z"/>
<path d="M3043 3205 c0 -38 2 -53 4 -32 2 20 2 52 0 70 -2 17 -4 1 -4 -38z"/>
<path d="M2023 3190 c0 -30 2 -43 4 -27 2 15 2 39 0 55 -2 15 -4 2 -4 -28z"/>
<path d="M2058 3233 c7 -3 16 -2 19 1 4 3 -2 6 -13 5 -11 0 -14 -3 -6 -6z"/>
<path d="M2948 3233 c7 -3 16 -2 19 1 4 3 -2 6 -13 5 -11 0 -14 -3 -6 -6z"/>
<path d="M4558 3233 c7 -3 16 -2 19 1 4 3 -2 6 -13 5 -11 0 -14 -3 -6 -6z"/>
<path d="M3413 3180 c0 -25 2 -35 4 -22 2 12 2 32 0 45 -2 12 -4 2 -4 -23z"/>
<path d="M3753 3180 c0 -25 2 -35 4 -22 2 12 2 32 0 45 -2 12 -4 2 -4 -23z"/>
<path d="M3103 3175 c0 -22 2 -30 4 -17 2 12 2 30 0 40 -3 9 -5 -1 -4 -23z"/>
<path d="M3473 3175 c0 -22 2 -30 4 -17 2 12 2 30 0 40 -3 9 -5 -1 -4 -23z"/>
<path d="M3813 3175 c0 -22 2 -30 4 -17 2 12 2 30 0 40 -3 9 -5 -1 -4 -23z"/>
<path d="M4370 3198 c0 -4 16 -8 35 -8 19 0 35 2 35 4 0 2 -16 6 -35 8 -19 2
-35 0 -35 -4z"/>
<path d="M2458 3193 c12 -2 30 -2 40 0 9 3 -1 5 -23 4 -22 0 -30 -2 -17 -4z"/>
<path d="M2768 3193 c12 -2 30 -2 40 0 9 3 -1 5 -23 4 -22 0 -30 -2 -17 -4z"/>
<path d="M3158 3193 c12 -2 30 -2 40 0 9 3 -1 5 -23 4 -22 0 -30 -2 -17 -4z"/>
<path d="M4242 3160 c0 -14 2 -19 5 -12 2 6 2 18 0 25 -3 6 -5 1 -5 -13z"/>
<path d="M1758 2893 c12 -2 32 -2 45 0 12 2 2 4 -23 4 -25 0 -35 -2 -22 -4z"/>
<path d="M4528 2893 c12 -2 32 -2 45 0 12 2 2 4 -23 4 -25 0 -35 -2 -22 -4z"/>
<path d="M3158 2863 c7 -3 16 -2 19 1 4 3 -2 6 -13 5 -11 0 -14 -3 -6 -6z"/>
<path d="M3758 2863 c7 -3 16 -2 19 1 4 3 -2 6 -13 5 -11 0 -14 -3 -6 -6z"/>
<path d="M1758 2843 c12 -2 32 -2 45 0 12 2 2 4 -23 4 -25 0 -35 -2 -22 -4z"/>
<path d="M1853 2810 c0 -25 2 -35 4 -22 2 12 2 32 0 45 -2 12 -4 2 -4 -23z"/>
<path d="M4213 2810 c0 -25 2 -35 4 -22 2 12 2 32 0 45 -2 12 -4 2 -4 -23z"/>
<path d="M4528 2843 c12 -2 30 -2 40 0 9 3 -1 5 -23 4 -22 0 -30 -2 -17 -4z"/>
<path d="M4623 2810 c0 -25 2 -35 4 -22 2 12 2 32 0 45 -2 12 -4 2 -4 -23z"/>
<path d="M3200 2828 c0 -4 16 -8 35 -8 19 0 35 2 35 4 0 2 -16 6 -35 8 -19 2
-35 0 -35 -4z"/>
<path d="M4273 2805 c0 -22 2 -30 4 -17 2 12 2 30 0 40 -3 9 -5 -1 -4 -23z"/>
<path d="M4683 2805 c0 -22 2 -30 4 -17 2 12 2 30 0 40 -3 9 -5 -1 -4 -23z"/>
<path d="M2338 2823 c12 -2 30 -2 40 0 9 3 -1 5 -23 4 -22 0 -30 -2 -17 -4z"/>
<path d="M3362 2805 c0 -16 2 -22 5 -12 2 9 2 23 0 30 -3 6 -5 -1 -5 -18z"/>
<path d="M4968 2823 c12 -2 30 -2 40 0 9 3 -1 5 -23 4 -22 0 -30 -2 -17 -4z"/>
<path d="M2000 2790 c0 -5 5 -10 11 -10 5 0 7 5 4 10 -3 6 -8 10 -11 10 -2 0
-4 -4 -4 -10z"/>
<path d="M1758 2773 c12 -2 32 -2 45 0 12 2 2 4 -23 4 -25 0 -35 -2 -22 -4z"/>
<path d="M4528 2773 c12 -2 32 -2 45 0 12 2 2 4 -23 4 -25 0 -35 -2 -22 -4z"/>
<path d="M3642 2650 c0 -19 2 -27 5 -17 2 9 2 25 0 35 -3 9 -5 1 -5 -18z"/>
<path d="M2418 2643 c7 -3 16 -2 19 1 4 3 -2 6 -13 5 -11 0 -14 -3 -6 -6z"/>
<path d="M2758 2643 c7 -3 16 -2 19 1 4 3 -2 6 -13 5 -11 0 -14 -3 -6 -6z"/>
<path d="M4218 2643 c7 -3 16 -2 19 1 4 3 -2 6 -13 5 -11 0 -14 -3 -6 -6z"/>
<path d="M4608 2643 c7 -3 16 -2 19 1 4 3 -2 6 -13 5 -11 0 -14 -3 -6 -6z"/>
<path d="M4898 2643 c7 -3 16 -2 19 1 4 3 -2 6 -13 5 -11 0 -14 -3 -6 -6z"/>
<path d="M5128 2643 c7 -3 16 -2 19 1 4 3 -2 6 -13 5 -11 0 -14 -3 -6 -6z"/>
<path d="M2563 2595 c0 -27 2 -38 4 -22 2 15 2 37 0 50 -2 12 -4 0 -4 -28z"/>
<path d="M1803 2590 c0 -25 2 -35 4 -22 2 12 2 32 0 45 -2 12 -4 2 -4 -23z"/>
<path d="M4363 2590 c0 -25 2 -35 4 -22 2 12 2 32 0 45 -2 12 -4 2 -4 -23z"/>
<path d="M1863 2585 c0 -22 2 -30 4 -17 2 12 2 30 0 40 -3 9 -5 -1 -4 -23z"/>
<path d="M2460 2608 c0 -4 16 -8 35 -8 19 0 35 2 35 4 0 2 -16 6 -35 8 -19 2
-35 0 -35 -4z"/>
<path d="M4940 2608 c0 -4 16 -8 35 -8 19 0 35 2 35 4 0 2 -16 6 -35 8 -19 2
-35 0 -35 -4z"/>
<path d="M2248 2603 c12 -2 30 -2 40 0 9 3 -1 5 -23 4 -22 0 -30 -2 -17 -4z"/>
<path d="M3090 2602 c0 -4 18 -6 40 -4 22 2 40 6 40 8 0 2 -18 4 -40 4 -22 0
-40 -3 -40 -8z"/>
<path d="M3358 2603 c12 -2 30 -2 40 0 9 3 -1 5 -23 4 -22 0 -30 -2 -17 -4z"/>
<path d="M4668 2603 c12 -2 30 -2 40 0 9 3 -1 5 -23 4 -22 0 -30 -2 -17 -4z"/>
<path d="M1818 2423 c7 -3 16 -2 19 1 4 3 -2 6 -13 5 -11 0 -14 -3 -6 -6z"/>
<path d="M2208 2423 c7 -3 16 -2 19 1 4 3 -2 6 -13 5 -11 0 -14 -3 -6 -6z"/>
<path d="M4938 2423 c7 -3 16 -2 19 1 4 3 -2 6 -13 5 -11 0 -14 -3 -6 -6z"/>
<path d="M1963 2370 c0 -25 2 -35 4 -22 2 12 2 32 0 45 -2 12 -4 2 -4 -23z"/>
<path d="M2393 2370 c0 -25 2 -35 4 -22 2 12 2 32 0 45 -2 12 -4 2 -4 -23z"/>
<path d="M5083 2370 c0 -25 2 -35 4 -22 2 12 2 32 0 45 -2 12 -4 2 -4 -23z"/>
<path d="M2453 2365 c0 -22 2 -30 4 -17 2 12 2 30 0 40 -3 9 -5 -1 -4 -23z"/>
<path d="M2960 2388 c0 -4 16 -8 35 -8 19 0 35 2 35 4 0 2 -16 6 -35 8 -19 2
-35 0 -35 -4z"/>
<path d="M1610 2378 c0 -4 16 -8 35 -8 19 0 35 2 35 4 0 2 -16 6 -35 8 -19 2
-35 0 -35 -4z"/>
<path d="M2530 2382 c0 -4 18 -6 40 -4 22 2 40 6 40 8 0 2 -18 4 -40 4 -22 0
-40 -3 -40 -8z"/>
<path d="M3078 2383 c12 -2 30 -2 40 0 9 3 -1 5 -23 4 -22 0 -30 -2 -17 -4z"/>
<path d="M3502 2365 c0 -16 2 -22 5 -12 2 9 2 23 0 30 -3 6 -5 -1 -5 -18z"/>
<path d="M4258 2383 c12 -2 30 -2 40 0 9 3 -1 5 -23 4 -22 0 -30 -2 -17 -4z"/>
<path d="M4638 2383 c12 -2 30 -2 40 0 9 3 -1 5 -23 4 -22 0 -30 -2 -17 -4z"/>
<path d="M5188 2383 c12 -2 30 -2 40 0 9 3 -1 5 -23 4 -22 0 -30 -2 -17 -4z"/>
<path d="M2792 2350 c0 -14 2 -19 5 -12 2 6 2 18 0 25 -3 6 -5 1 -5 -13z"/>
<path d="M4140 2326 c0 -20 2 -36 4 -36 8 0 12 61 4 66 -4 3 -8 -11 -8 -30z"/>
<path d="M4485 2350 c-3 -5 -1 -10 4 -10 6 0 11 5 11 10 0 6 -2 10 -4 10 -3 0
-8 -4 -11 -10z"/>
<path d="M3773 2150 c0 -25 2 -35 4 -22 2 12 2 32 0 45 -2 12 -4 2 -4 -23z"/>
<path d="M3833 2145 c0 -22 2 -30 4 -17 2 12 2 30 0 40 -3 9 -5 -1 -4 -23z"/>
<path d="M3502 2145 c0 -16 2 -22 5 -12 2 9 2 23 0 30 -3 6 -5 -1 -5 -18z"/>
<path d="M3950 2162 c0 -4 18 -6 40 -4 22 2 40 6 40 8 0 2 -18 4 -40 4 -22 0
-40 -3 -40 -8z"/>
</g>
</svg>
